<?xml version="1.0" encoding="utf-8"?>
<!-- Generator: Adobe Illustrator 24.1.1, SVG Export Plug-In . SVG Version: 6.00 Build 0)  -->
<svg version="1.1" id="Layer_1" xmlns="http://www.w3.org/2000/svg" xmlns:xlink="http://www.w3.org/1999/xlink" x="0px" y="0px"
	 viewBox="0 0 1069.74 1080" style="enable-background:new 0 0 1069.74 1080;" xml:space="preserve">
<style type="text/css">
	.st0{fill:#3588C9;}
</style>
<path class="st0" d="M696.62,10.93H374.04c-2.67,0-4.83,2.16-4.83,4.83v280.93c0,2.67,2.16,4.83,4.83,4.83h201.66
	c4.88,0.03,8.82,3.89,9.03,8.72v63.86c-0.04,4.98-4.07,9.01-9.06,9.03H496.2c-4.96-0.02-8.98-4-9.07-8.95v-29.98
	c0-2.67-2.16-4.83-4.83-4.83H374.04c-2.67,0-4.83,2.16-4.83,4.83v97.91v41.91c0,1.51,0.71,2.94,1.91,3.85
	c0.85,0.64,1.88,0.98,2.92,0.98c0.44,0,0.88-0.06,1.31-0.18c36.42-10.24,74.18-16.88,112.21-19.73c14.18-1.06,28.57-1.6,42.77-1.6
	c56.05,0,111.51,8.26,164.89,24.55c0.46,0.14,0.94,0.21,1.41,0.21c1.02,0,2.03-0.32,2.87-0.95c1.23-0.91,1.96-2.35,1.96-3.88V201.35
	c0-2.67-2.16-4.83-4.83-4.83H495.27c-4.95-0.08-8.94-4.09-8.96-9.05v-0.09c0-0.02,0-0.03,0-0.05h0v-63.5
	c0.09-4.89,4.03-8.82,8.91-8.92h79.45c4.68,0.1,8.46,3.72,8.85,8.32v30.69c0,2.67,2.16,4.83,4.83,4.83h108.27
	c2.67,0,4.83-2.16,4.83-4.83v-43.84V15.76C701.45,13.09,699.29,10.93,696.62,10.93z"/>
<g>
	<g>
		<path class="st0" d="M1058.11,10.93H735.52c-2.67,0-4.83,2.16-4.83,4.83v280.93c0,2.67,2.16,4.83,4.83,4.83h203.06
			c4.37,0.02,8.01,3.12,8.87,7.24v165.5c-0.27,5.09-4.44,9.15-9.6,9.15c-1.58,0-3.08-0.38-4.4-1.06c-0.01-0.01-0.02,0-0.03,0
			l-79.56-38.27c-3.1-1.6-5.22-4.82-5.23-8.54v-90.74c0-2.67-2.16-4.83-4.83-4.83H735.52c-2.67,0-4.83,2.16-4.83,4.83v47.73v72.54
			v35.64c0,2,1.23,3.79,3.09,4.51c65.16,25.19,124.46,61.92,176.25,109.17c63.24,57.69,112.89,130,143.58,209.12
			c0.73,1.88,2.54,3.08,4.5,3.08c0.29,0,0.59-0.03,0.89-0.08c2.29-0.43,3.94-2.42,3.94-4.75v-620.4c0-2.67-2.16-4.83-4.83-4.83
			H858.16c-4.97-0.08-8.97-4.11-8.97-9.1v9.1h-0.15v-73.06c0.27-4.65,4-8.35,8.67-8.56h78.39c4.88,0.1,8.8,4.02,8.91,8.89v30.12
			c0,2.67,2.16,4.83,4.83,4.83h108.27c2.67,0,4.83-2.16,4.83-4.83v-43.84V15.76C1062.94,13.09,1060.78,10.93,1058.11,10.93z"/>
		<path class="st0" d="M849.19,187.33v0.09C849.19,187.39,849.2,187.36,849.19,187.33L849.19,187.33z"/>
	</g>
</g>
<g>
	<g>
		<path class="st0" d="M334.22,6.24H11.63c-2.67,0-4.83,2.16-4.83,4.83v781.54c0,2.28,1.6,4.25,3.83,4.73
			c0.34,0.07,0.67,0.11,1.01,0.11c1.88,0,3.62-1.1,4.41-2.86c21.89-49.11,50.98-94.96,86.48-136.28
			c62.81-73.11,143.5-128.99,233.34-161.6c1.91-0.69,3.18-2.51,3.18-4.54V388.23V344.5c0-2.67-2.16-4.83-4.83-4.83H225.95
			c-2.67,0-4.83,2.16-4.83,4.83v87.77c-0.05,3.6-2.07,6.69-5.02,8.31l-78.51,38.37c-1.19,0.53-2.49,0.87-3.88,0.87
			c-5.33,0-9.65-4.32-9.65-9.65c0-0.12-0.04-0.14-0.06-0.23V114.8h0.05v9.06c0-4.85,3.8-8.78,8.59-9.06h80.28
			c4.33,0.39,7.76,3.77,8.21,8.09v68.17c0,2.67,2.16,4.83,4.83,4.83h108.27c2.67,0,4.83-2.16,4.83-4.83v-19.32V11.07
			C339.05,8.41,336.89,6.24,334.22,6.24z"/>
	</g>
</g>
<path class="st0" d="M1032.35,995.29c-20.81-271.3-260.87-475.3-535.13-454.76c-133.9,10.03-255.54,71.3-342.51,172.53
	C69.07,812.75,27.41,939.49,37.41,1069.95c0.12,1.54,0.28,3.06,0.41,4.59h994.22C1034.24,1048.41,1034.39,1021.93,1032.35,995.29z
	 M451.75,898.36c-37.13,22.48-63.61,59.42-72.67,101.36c-0.3,1.4-1.19,2.6-2.44,3.29c-0.74,0.41-1.57,0.62-2.4,0.62
	c-0.57,0-1.14-0.1-1.68-0.3l-236.13-85.26c-2.49-0.9-3.83-3.59-3.05-6.12c16.69-54.16,44.11-103.69,81.5-147.22
	c17.38-20.23,36.87-38.96,57.91-55.65c1.99-1.58,4.89-1.39,6.66,0.46L452.76,890.7c1.04,1.09,1.53,2.59,1.33,4.08
	S453.03,897.58,451.75,898.36z M613.56,1006.39c-0.92,1.36-2.46,2.17-4.1,2.17H460.4c-1.65,0-3.18-0.82-4.1-2.18
	c-0.92-1.36-1.11-3.09-0.5-4.62c12.11-30.28,39.95-50.61,72.66-53.06c37.47-2.8,71.86,18.52,85.6,53.06
	C614.67,1003.3,614.48,1005.03,613.56,1006.39z M636.22,908.83c-0.38,0.09-0.76,0.13-1.14,0.13c-1.07,0-2.13-0.35-3-1.01
	c-31.19-23.74-69.95-35.19-109.25-32.26c-4.39,0.33-8.85,0.85-13.28,1.55c-1.42,0.23-2.87-0.18-3.96-1.1s-1.74-2.28-1.77-3.72
	l-3.66-247.88c-0.04-2.63,1.98-4.83,4.6-5.02c10.36-0.74,20.6-1.11,30.42-1.11c74.41,0,147.79,19.83,212.22,57.34
	c2.25,1.31,3.1,4.13,1.96,6.47L639.53,906.19C638.88,907.52,637.67,908.48,636.22,908.83z M952.05,1006.99
	c-0.94,1-2.25,1.58-3.63,1.58H696.52c-2.4,0-4.45-1.71-4.87-4.07c-2.67-14.62-7.43-28.77-14.13-42.06c-0.65-1.3-0.71-2.81-0.15-4.15
	c0.56-1.34,1.68-2.36,3.07-2.81l239.28-76.11c2.48-0.78,5.15,0.48,6.11,2.9c15.07,38.14,24.31,78.2,27.45,119.07l0.1,1.92
	C953.46,1004.64,952.98,1005.99,952.05,1006.99z"/>
</svg>
